solid OpenSCAD_Model
  facet normal 1 0 0
    outer loop
      vertex 14.5 -7.4 1
      vertex 14.5 -9.2 1
      vertex 14.5 -7.4 0.5
    endloop
  endfacet
  facet normal 1 0 0
    outer loop
      vertex 14.5 4 1
      vertex 14.5 -4 1
      vertex 14.5 4 0.5
    endloop
  endfacet
  facet normal 1 0 0
    outer loop
      vertex 14.5 7.4 0.5
      vertex 14.5 9.2 1
      vertex 14.5 7.4 1
    endloop
  endfacet
  facet normal 1 0 0
    outer loop
      vertex 14.5 9.2 1
      vertex 14.5 7.4 0.5
      vertex 14.5 9.2 -2.04281e-015
    endloop
  endfacet
  facet normal 1 -0 0
    outer loop
      vertex 14.5 4 0.5
      vertex 14.5 9.2 -2.04281e-015
      vertex 14.5 7.4 0.5
    endloop
  endfacet
  facet normal 1 0 0
    outer loop
      vertex 14.5 -4 0.5
      vertex 14.5 4 0.5
      vertex 14.5 -4 1
    endloop
  endfacet
  facet normal 1 0 0
    outer loop
      vertex 14.5 4 0.5
      vertex 14.5 -4 0.5
      vertex 14.5 9.2 -2.04281e-015
    endloop
  endfacet
  facet normal 1 0 0
    outer loop
      vertex 14.5 -9.2 2.04281e-015
      vertex 14.5 -4 0.5
      vertex 14.5 -7.4 0.5
    endloop
  endfacet
  facet normal 1 0 0
    outer loop
      vertex 14.5 -4 0.5
      vertex 14.5 -9.2 2.04281e-015
      vertex 14.5 9.2 -2.04281e-015
    endloop
  endfacet
  facet normal 1 0 0
    outer loop
      vertex 14.5 -9.2 2.04281e-015
      vertex 14.5 -7.4 0.5
      vertex 14.5 -9.2 1
    endloop
  endfacet
  facet normal 1 -0 0
    outer loop
      vertex 14.5 5.4 1.3
      vertex 14.5 7.4 1
      vertex 14.5 7.4 3
    endloop
  endfacet
  facet normal 1 0 0
    outer loop
      vertex 14.5 5.4 1.3
      vertex 14.5 7.4 3
      vertex 14.5 5.4 3
    endloop
  endfacet
  facet normal 1 0 0
    outer loop
      vertex 14.5 7.4 1
      vertex 14.5 5.4 1.3
      vertex 14.5 7.4 0.5
    endloop
  endfacet
  facet normal 1 0 0
    outer loop
      vertex 14.5 4 1
      vertex 14.5 5.4 1.3
      vertex 14.5 4 1.3
    endloop
  endfacet
  facet normal 1 0 0
    outer loop
      vertex 14.5 4 0.5
      vertex 14.5 5.4 1.3
      vertex 14.5 4 1
    endloop
  endfacet
  facet normal 1 0 0
    outer loop
      vertex 14.5 5.4 1.3
      vertex 14.5 4 0.5
      vertex 14.5 7.4 0.5
    endloop
  endfacet
  facet normal 1 0 0
    outer loop
      vertex 14.5 -5.4 3
      vertex 14.5 -7.4 3
      vertex 14.5 -5.4 1.3
    endloop
  endfacet
  facet normal 1 -0 0
    outer loop
      vertex 14.5 -5.4 1.3
      vertex 14.5 -4 1
      vertex 14.5 -4 1.3
    endloop
  endfacet
  facet normal 1 0 0
    outer loop
      vertex 14.5 -4 1
      vertex 14.5 -5.4 1.3
      vertex 14.5 -4 0.5
    endloop
  endfacet
  facet normal 1 0 0
    outer loop
      vertex 14.5 -7.4 1
      vertex 14.5 -5.4 1.3
      vertex 14.5 -7.4 3
    endloop
  endfacet
  facet normal 1 0 0
    outer loop
      vertex 14.5 -7.4 0.5
      vertex 14.5 -5.4 1.3
      vertex 14.5 -7.4 1
    endloop
  endfacet
  facet normal 1 0 0
    outer loop
      vertex 14.5 -5.4 1.3
      vertex 14.5 -7.4 0.5
      vertex 14.5 -4 0.5
    endloop
  endfacet
  facet normal 0 1 -0
    outer loop
      vertex 43.5 -9.2 2.04281e-015
      vertex 14.5 -9.2 1
      vertex 43.5 -9.2 1
    endloop
  endfacet
  facet normal 0 1 0
    outer loop
      vertex 14.5 -9.2 1
      vertex 43.5 -9.2 2.04281e-015
      vertex 14.5 -9.2 2.04281e-015
    endloop
  endfacet
  facet normal -1 0 0
    outer loop
      vertex 43.5 -9.2 2.04281e-015
      vertex 43.5 9.2 1
      vertex 43.5 9.2 -2.04281e-015
    endloop
  endfacet
  facet normal -1 -0 0
    outer loop
      vertex 43.5 9.2 1
      vertex 43.5 -9.2 2.04281e-015
      vertex 43.5 -9.2 1
    endloop
  endfacet
  facet normal 0 -1 0
    outer loop
      vertex 14.5 9.2 -2.04281e-015
      vertex 43.5 9.2 1
      vertex 14.5 9.2 1
    endloop
  endfacet
  facet normal 0 -1 -0
    outer loop
      vertex 43.5 9.2 1
      vertex 14.5 9.2 -2.04281e-015
      vertex 43.5 9.2 -2.04281e-015
    endloop
  endfacet
  facet normal 0 1 -0
    outer loop
      vertex -14.5 -9.2 2.04281e-015
      vertex -43.5 -9.2 1
      vertex -14.5 -9.2 1
    endloop
  endfacet
  facet normal 0 1 0
    outer loop
      vertex -43.5 -9.2 1
      vertex -14.5 -9.2 2.04281e-015
      vertex -43.5 -9.2 2.04281e-015
    endloop
  endfacet
  facet normal 1 -0 0
    outer loop
      vertex -43.5 -9.2 1
      vertex -43.5 9.2 -2.04281e-015
      vertex -43.5 9.2 1
    endloop
  endfacet
  facet normal 1 0 0
    outer loop
      vertex -43.5 9.2 -2.04281e-015
      vertex -43.5 -9.2 1
      vertex -43.5 -9.2 2.04281e-015
    endloop
  endfacet
  facet normal -1 0 0
    outer loop
      vertex -14.5 5.4 1.3
      vertex -14.5 7.4 1
      vertex -14.5 7.4 0.5
    endloop
  endfacet
  facet normal -1 0 0
    outer loop
      vertex -14.5 7.4 1
      vertex -14.5 5.4 1.3
      vertex -14.5 7.4 3
    endloop
  endfacet
  facet normal -1 0 0
    outer loop
      vertex -14.5 4 0.5
      vertex -14.5 5.4 1.3
      vertex -14.5 7.4 0.5
    endloop
  endfacet
  facet normal -1 0 0
    outer loop
      vertex -14.5 4 1
      vertex -14.5 5.4 1.3
      vertex -14.5 4 0.5
    endloop
  endfacet
  facet normal -1 -0 0
    outer loop
      vertex -14.5 5.4 1.3
      vertex -14.5 4 1
      vertex -14.5 4 1.3
    endloop
  endfacet
  facet normal -1 -0 0
    outer loop
      vertex -14.5 7.4 3
      vertex -14.5 5.4 1.3
      vertex -14.5 5.4 3
    endloop
  endfacet
  facet normal -1 0 0
    outer loop
      vertex -14.5 9.2 -2.04281e-015
      vertex -14.5 7.4 0.5
      vertex -14.5 9.2 1
    endloop
  endfacet
  facet normal -1 0 0
    outer loop
      vertex -14.5 9.2 -2.04281e-015
      vertex -14.5 4 0.5
      vertex -14.5 7.4 0.5
    endloop
  endfacet
  facet normal -1 0 0
    outer loop
      vertex -14.5 4 0.5
      vertex -14.5 -4 0.5
      vertex -14.5 4 1
    endloop
  endfacet
  facet normal -1 0 0
    outer loop
      vertex -14.5 9.2 -2.04281e-015
      vertex -14.5 -4 0.5
      vertex -14.5 4 0.5
    endloop
  endfacet
  facet normal -1 0 0
    outer loop
      vertex -14.5 -9.2 2.04281e-015
      vertex -14.5 -4 0.5
      vertex -14.5 9.2 -2.04281e-015
    endloop
  endfacet
  facet normal -1 -0 0
    outer loop
      vertex -14.5 -4 0.5
      vertex -14.5 -9.2 2.04281e-015
      vertex -14.5 -7.4 0.5
    endloop
  endfacet
  facet normal -1 0 0
    outer loop
      vertex -14.5 -9.2 1
      vertex -14.5 -7.4 0.5
      vertex -14.5 -9.2 2.04281e-015
    endloop
  endfacet
  facet normal -1 0 0
    outer loop
      vertex -14.5 -7.4 0.5
      vertex -14.5 -9.2 1
      vertex -14.5 -7.4 1
    endloop
  endfacet
  facet normal -1 -0 0
    outer loop
      vertex -14.5 9.2 1
      vertex -14.5 7.4 0.5
      vertex -14.5 7.4 1
    endloop
  endfacet
  facet normal -1 -0 0
    outer loop
      vertex -14.5 4 1
      vertex -14.5 -4 0.5
      vertex -14.5 -4 1
    endloop
  endfacet
  facet normal -1 0 0
    outer loop
      vertex -14.5 -5.4 1.3
      vertex -14.5 -4 1
      vertex -14.5 -4 0.5
    endloop
  endfacet
  facet normal -1 0 0
    outer loop
      vertex -14.5 -4 1
      vertex -14.5 -5.4 1.3
      vertex -14.5 -4 1.3
    endloop
  endfacet
  facet normal -1 0 0
    outer loop
      vertex -14.5 -7.4 0.5
      vertex -14.5 -5.4 1.3
      vertex -14.5 -4 0.5
    endloop
  endfacet
  facet normal -1 0 0
    outer loop
      vertex -14.5 -7.4 1
      vertex -14.5 -5.4 1.3
      vertex -14.5 -7.4 0.5
    endloop
  endfacet
  facet normal -1 0 0
    outer loop
      vertex -14.5 -7.4 3
      vertex -14.5 -5.4 1.3
      vertex -14.5 -7.4 1
    endloop
  endfacet
  facet normal -1 0 0
    outer loop
      vertex -14.5 -5.4 1.3
      vertex -14.5 -7.4 3
      vertex -14.5 -5.4 3
    endloop
  endfacet
  facet normal 0 -1 0
    outer loop
      vertex -43.5 9.2 -2.04281e-015
      vertex -14.5 9.2 1
      vertex -43.5 9.2 1
    endloop
  endfacet
  facet normal 0 -1 -0
    outer loop
      vertex -14.5 9.2 1
      vertex -43.5 9.2 -2.04281e-015
      vertex -14.5 9.2 -2.04281e-015
    endloop
  endfacet
  facet normal -1 0 0
    outer loop
      vertex -47 -12.5 2.77556e-015
      vertex -47 12.5 1
      vertex -47 12.5 -2.77556e-015
    endloop
  endfacet
  facet normal -1 -0 0
    outer loop
      vertex -47 12.5 1
      vertex -47 -12.5 2.77556e-015
      vertex -47 -12.5 1
    endloop
  endfacet
  facet normal 0 -1 0
    outer loop
      vertex -47 -12.5 2.77556e-015
      vertex 47 -12.5 1
      vertex -47 -12.5 1
    endloop
  endfacet
  facet normal 0 -1 -0
    outer loop
      vertex 47 -12.5 1
      vertex -47 -12.5 2.77556e-015
      vertex 47 -12.5 2.77556e-015
    endloop
  endfacet
  facet normal 1 -0 0
    outer loop
      vertex 47 -12.5 1
      vertex 47 12.5 -2.77556e-015
      vertex 47 12.5 1
    endloop
  endfacet
  facet normal 1 0 0
    outer loop
      vertex 47 12.5 -2.77556e-015
      vertex 47 -12.5 1
      vertex 47 -12.5 2.77556e-015
    endloop
  endfacet
  facet normal 0 0 1
    outer loop
      vertex 14.5 -7.4 1
      vertex -14.5 -7.4 1
      vertex 14.5 -9.2 1
    endloop
  endfacet
  facet normal 0 0 1
    outer loop
      vertex 47 12.5 1
      vertex 43.5 9.2 1
      vertex 47 -12.5 1
    endloop
  endfacet
  facet normal 0 0 1
    outer loop
      vertex 47 12.5 1
      vertex 14.5 9.2 1
      vertex 43.5 9.2 1
    endloop
  endfacet
  facet normal 0 0 1
    outer loop
      vertex 14.5 9.2 1
      vertex -14.5 9.2 1
      vertex 14.5 7.4 1
    endloop
  endfacet
  facet normal 0 0 1
    outer loop
      vertex 47 12.5 1
      vertex -14.5 9.2 1
      vertex 14.5 9.2 1
    endloop
  endfacet
  facet normal -0 0 1
    outer loop
      vertex -47 12.5 1
      vertex -14.5 9.2 1
      vertex 47 12.5 1
    endloop
  endfacet
  facet normal 0 0 1
    outer loop
      vertex -43.5 9.2 1
      vertex -47 12.5 1
      vertex -43.5 -9.2 1
    endloop
  endfacet
  facet normal 0 0 1
    outer loop
      vertex -14.5 9.2 1
      vertex -47 12.5 1
      vertex -43.5 9.2 1
    endloop
  endfacet
  facet normal -0 0 1
    outer loop
      vertex 43.5 -9.2 1
      vertex 47 -12.5 1
      vertex 43.5 9.2 1
    endloop
  endfacet
  facet normal -0 0 1
    outer loop
      vertex 14.5 -9.2 1
      vertex 47 -12.5 1
      vertex 43.5 -9.2 1
    endloop
  endfacet
  facet normal 0 0 1
    outer loop
      vertex -14.5 -9.2 1
      vertex 14.5 -9.2 1
      vertex -14.5 -7.4 1
    endloop
  endfacet
  facet normal 0 0 1
    outer loop
      vertex 14.5 -9.2 1
      vertex -14.5 -9.2 1
      vertex 47 -12.5 1
    endloop
  endfacet
  facet normal 0 0 1
    outer loop
      vertex -47 -12.5 1
      vertex -14.5 -9.2 1
      vertex -43.5 -9.2 1
    endloop
  endfacet
  facet normal 0 0 1
    outer loop
      vertex -14.5 -9.2 1
      vertex -47 -12.5 1
      vertex 47 -12.5 1
    endloop
  endfacet
  facet normal 0 0 1
    outer loop
      vertex -47 -12.5 1
      vertex -43.5 -9.2 1
      vertex -47 12.5 1
    endloop
  endfacet
  facet normal 0 0 1
    outer loop
      vertex 14.5 7.4 1
      vertex -14.5 9.2 1
      vertex -14.5 7.4 1
    endloop
  endfacet
  facet normal -0 0 1
    outer loop
      vertex -14.5 4 1
      vertex 14.5 -4 1
      vertex 14.5 4 1
    endloop
  endfacet
  facet normal 0 0 1
    outer loop
      vertex 14.5 -4 1
      vertex -14.5 4 1
      vertex -14.5 -4 1
    endloop
  endfacet
  facet normal 0 1 -0
    outer loop
      vertex 47 12.5 -2.77556e-015
      vertex -47 12.5 1
      vertex 47 12.5 1
    endloop
  endfacet
  facet normal 0 1 0
    outer loop
      vertex -47 12.5 1
      vertex 47 12.5 -2.77556e-015
      vertex -47 12.5 -2.77556e-015
    endloop
  endfacet
  facet normal 0 -2.22045e-016 -1
    outer loop
      vertex 47 -12.5 2.77556e-015
      vertex 43.5 -9.2 2.04281e-015
      vertex 47 12.5 -2.77556e-015
    endloop
  endfacet
  facet normal 0 -2.22045e-016 -1
    outer loop
      vertex 47 -12.5 2.77556e-015
      vertex 14.5 -9.2 2.04281e-015
      vertex 43.5 -9.2 2.04281e-015
    endloop
  endfacet
  facet normal -0 -2.22045e-016 -1
    outer loop
      vertex 14.5 -9.2 2.04281e-015
      vertex -14.5 -9.2 2.04281e-015
      vertex 14.5 9.2 -2.04281e-015
    endloop
  endfacet
  facet normal 0 -2.22045e-016 -1
    outer loop
      vertex 47 -12.5 2.77556e-015
      vertex -14.5 -9.2 2.04281e-015
      vertex 14.5 -9.2 2.04281e-015
    endloop
  endfacet
  facet normal 0 -2.22045e-016 -1
    outer loop
      vertex -47 -12.5 2.77556e-015
      vertex -14.5 -9.2 2.04281e-015
      vertex 47 -12.5 2.77556e-015
    endloop
  endfacet
  facet normal 0 -2.22045e-016 -1
    outer loop
      vertex -43.5 -9.2 2.04281e-015
      vertex -47 -12.5 2.77556e-015
      vertex -43.5 9.2 -2.04281e-015
    endloop
  endfacet
  facet normal -0 -2.22045e-016 -1
    outer loop
      vertex -14.5 -9.2 2.04281e-015
      vertex -47 -12.5 2.77556e-015
      vertex -43.5 -9.2 2.04281e-015
    endloop
  endfacet
  facet normal 0 -2.22045e-016 -1
    outer loop
      vertex 43.5 9.2 -2.04281e-015
      vertex 47 12.5 -2.77556e-015
      vertex 43.5 -9.2 2.04281e-015
    endloop
  endfacet
  facet normal 0 -2.22045e-016 -1
    outer loop
      vertex 14.5 9.2 -2.04281e-015
      vertex 47 12.5 -2.77556e-015
      vertex 43.5 9.2 -2.04281e-015
    endloop
  endfacet
  facet normal 0 -2.22045e-016 -1
    outer loop
      vertex -14.5 9.2 -2.04281e-015
      vertex 14.5 9.2 -2.04281e-015
      vertex -14.5 -9.2 2.04281e-015
    endloop
  endfacet
  facet normal 0 -2.22045e-016 -1
    outer loop
      vertex -14.5 9.2 -2.04281e-015
      vertex 47 12.5 -2.77556e-015
      vertex 14.5 9.2 -2.04281e-015
    endloop
  endfacet
  facet normal 0 -2.22045e-016 -1
    outer loop
      vertex -47 12.5 -2.77556e-015
      vertex -14.5 9.2 -2.04281e-015
      vertex -43.5 9.2 -2.04281e-015
    endloop
  endfacet
  facet normal 0 -2.22045e-016 -1
    outer loop
      vertex -14.5 9.2 -2.04281e-015
      vertex -47 12.5 -2.77556e-015
      vertex 47 12.5 -2.77556e-015
    endloop
  endfacet
  facet normal 0 -2.22045e-016 -1
    outer loop
      vertex -47 12.5 -2.77556e-015
      vertex -43.5 9.2 -2.04281e-015
      vertex -47 -12.5 2.77556e-015
    endloop
  endfacet
  facet normal 0 -1 0
    outer loop
      vertex -14.5 -7.4 1
      vertex 14.5 -7.4 3
      vertex -14.5 -7.4 3
    endloop
  endfacet
  facet normal 0 -1 -0
    outer loop
      vertex 14.5 -7.4 3
      vertex -14.5 -7.4 1
      vertex 14.5 -7.4 1
    endloop
  endfacet
  facet normal -0 0 1
    outer loop
      vertex -14.5 -5.4 3
      vertex 14.5 -7.4 3
      vertex 14.5 -5.4 3
    endloop
  endfacet
  facet normal 0 0 1
    outer loop
      vertex 14.5 -7.4 3
      vertex -14.5 -5.4 3
      vertex -14.5 -7.4 3
    endloop
  endfacet
  facet normal 0 1 -0
    outer loop
      vertex 14.5 -5.4 1.3
      vertex -14.5 -5.4 3
      vertex 14.5 -5.4 3
    endloop
  endfacet
  facet normal 0 1 0
    outer loop
      vertex -14.5 -5.4 3
      vertex 14.5 -5.4 1.3
      vertex -14.5 -5.4 1.3
    endloop
  endfacet
  facet normal -0 0 1
    outer loop
      vertex -14.5 -4 1.3
      vertex 14.5 -5.4 1.3
      vertex 14.5 -4 1.3
    endloop
  endfacet
  facet normal 0 0 1
    outer loop
      vertex 14.5 -5.4 1.3
      vertex -14.5 -4 1.3
      vertex -14.5 -5.4 1.3
    endloop
  endfacet
  facet normal 0 1 -0
    outer loop
      vertex 14.5 -4 1
      vertex -14.5 -4 1.3
      vertex 14.5 -4 1.3
    endloop
  endfacet
  facet normal 0 1 0
    outer loop
      vertex -14.5 -4 1.3
      vertex 14.5 -4 1
      vertex -14.5 -4 1
    endloop
  endfacet
  facet normal 0 1 -0
    outer loop
      vertex 14.5 7.4 1
      vertex -14.5 7.4 3
      vertex 14.5 7.4 3
    endloop
  endfacet
  facet normal 0 1 0
    outer loop
      vertex -14.5 7.4 3
      vertex 14.5 7.4 1
      vertex -14.5 7.4 1
    endloop
  endfacet
  facet normal -0 0 1
    outer loop
      vertex -14.5 7.4 3
      vertex 14.5 5.4 3
      vertex 14.5 7.4 3
    endloop
  endfacet
  facet normal 0 0 1
    outer loop
      vertex 14.5 5.4 3
      vertex -14.5 7.4 3
      vertex -14.5 5.4 3
    endloop
  endfacet
  facet normal 0 -1 0
    outer loop
      vertex -14.5 5.4 1.3
      vertex 14.5 5.4 3
      vertex -14.5 5.4 3
    endloop
  endfacet
  facet normal 0 -1 -0
    outer loop
      vertex 14.5 5.4 3
      vertex -14.5 5.4 1.3
      vertex 14.5 5.4 1.3
    endloop
  endfacet
  facet normal -0 0 1
    outer loop
      vertex -14.5 5.4 1.3
      vertex 14.5 4 1.3
      vertex 14.5 5.4 1.3
    endloop
  endfacet
  facet normal 0 0 1
    outer loop
      vertex 14.5 4 1.3
      vertex -14.5 5.4 1.3
      vertex -14.5 4 1.3
    endloop
  endfacet
  facet normal 0 -1 0
    outer loop
      vertex -14.5 4 1
      vertex 14.5 4 1.3
      vertex -14.5 4 1.3
    endloop
  endfacet
  facet normal 0 -1 -0
    outer loop
      vertex 14.5 4 1.3
      vertex -14.5 4 1
      vertex 14.5 4 1
    endloop
  endfacet
endsolid OpenSCAD_Model
